<svg xmlns="http://www.w3.org/2000/svg" width="13" height="13" viewBox="0 0 13 13">
    <g fill="none" fill-rule="evenodd">
        <rect width="13" height="9" y="2" fill="#62B543" fill-opacity=".7"/>
        <path fill="#231F20" fill-opacity=".7"
              d="M2.23010442 9C1.45620443 9 .940800019 8.7302.600000024 8.32550001L1.28870001 7.55870002C1.57270001 7.87110002 1.84960001 8.05570001 2.1975 8.05570001 2.6093 8.05570001 2.86489999 7.80720002 2.86489999 7.23210002L2.86489999 4 4 4 4 7.28180002C4 7.87110002 3.81629998 8.31130001 3.51809998 8.60950001 3.21279999 8.9148 2.76970441 9 2.23010442 9zM6.43000016 9C5.92826684 9 5.31399636 9 4.58718872 9L4.58718872 8C5.43706302 8 6.0513335 8 6.43000016 8 6.87730016 8 7.14710015 7.92790001 7.14710015 7.63680002 7.14710015 7.34570002 7.02688867 7 6.14600017 7 5.12490639 7 4.49880019 6.45820003 4.49880019 5.47130005 4.49880019 4.55540006 5.22300018 4 6.23830016 4 6.72110016 4 7.21373912 4 7.71621704 4L7.71621704 4.9000001C7.00073912 4.9000001 6.50336683 4.9000001 6.22410016 4.9000001 5.80520017 4.9000001 5.58510017 5.11630005 5.58510017 5.35770005 5.58510017 5.69850004 5.78082518 6 6.65720016 6 7.64801294 6 8.23340014 6.64990003 8.23340014 7.51610002 8.23340014 8.51720001 7.50210015 9 6.43000016 9z"/>
        <polygon fill="#231F20" fill-opacity=".7"
                 points="8.905 9 8.905 4 12.3 4 12.3 5 9.998 5 9.998 6.003 12 6.003 12 7.009 9.998 7.009 9.998 9"/>
    </g>
</svg>
