<svg xmlns="http://www.w3.org/2000/svg" width="13" height="13" viewBox="0 0 13 13">
    <g fill="#DA4648" transform="translate(2.5 -1)">
        <path d="M6.20775265,10.5267615 L6.66665724,9.93923498 C6.66665724,9.93923498 5.6221861,10.2596873 3.87357126,10.2596873 C2.1249258,10.2596873 1.0962874,9.94516078 1.0962874,9.94516078 L1.61059128,10.5860654 L1.79253004,12.6037756 C1.79253004,12.8200901 2.74368905,12.9954293 3.91705771,12.9954293 C5.09036514,12.9954293 6.04155477,12.8200901 6.04155477,12.6037756 L6.20775265,10.5267615 Z M6.77000046,1.01 L5.77000046,0.989202083 L4.84000015,3 C4.53516114,2.99233934 4.22871326,2.99994893 3.92370318,3 C1.76971496,3 0.0235500589,3.17293649 0.0235500589,3.4000001 C0.0235500589,3.62708667 1.76971496,3.9000001 3.92370318,3.9000001 C6.07766078,3.9000001 7.82379505,3.62708667 7.82379505,3.4000001 C7.82379505,3.23279161 7.19947247,3.06424205 5.84000015,3 L6.77000046,1.01 Z"/>
        <path d="M5.01659128 3.84194459C4.79428975 3.84417001 4.6364523 3.83845809 4.57358068 3.69974015 4.55667609 3.66250142 4.54742756 3.58854324 4.54751943 3.53847126 4.54770318 3.44314903 4.57563251 3.38699423 4.6112179 3.35183256L4.64487397 3.47972013C4.63023557 3.49195995 4.62187515 3.50642519 4.62184452 3.52185478 4.62172203 3.59425516 4.84913781 3.64380788 5.02308363 3.63846687 5.19706007 3.63327422 5.40726502 3.59855764 5.40744876 3.52719579 5.40744876 3.5056092 5.39155477 3.48528368 5.36390106 3.46926065L5.397404 3.34226325C5.44248292 3.37616384 5.4818351 3.44166542 5.48174323 3.55501356 5.48131449 3.74773507 5.38007067 3.77703646 5.31438163 3.79862305 5.31438163 3.79862305 5.23883157 3.83964498 5.01659128 3.84194459zM7.74974558 4.01000023C7.74974558 4.01473167 7.22316137 4.42999983 3.87305065 4.42999983.522909305 4.42999983.0508056537 4.01000023.0508056537 4.01000023L.904242638 9.18000031C.904242638 9.18000031 1.63962309 9.61999989 3.85489046 9.61999989 6.07015783 9.61999989 6.83276325 9.18999958 6.83276325 9.18999958L7.74974558 4.01000023z"/>
    </g>
</svg>
