<svg xmlns="http://www.w3.org/2000/svg" width="13" height="13" viewBox="0 0 13 13">
    <defs>
        <linearGradient id="pythonconsoletoolwindow-a" x1="0%" x2="74.521%" y1="0%" y2="64.11%">
            <stop offset="0%" stop-color="#5A9FD4"/>
            <stop offset="100%" stop-color="#306998"/>
        </linearGradient>
        <linearGradient id="pythonconsoletoolwindow-b" x1="50%" x2="23.443%" y1="82.276%" y2="44.914%">
            <stop offset="0%" stop-color="#FFD43B"/>
            <stop offset="100%" stop-color="#FFE873"/>
        </linearGradient>
    </defs>
    <g fill="none" transform="translate(1 1)">
        <path fill="url(#pythonconsoletoolwindow-a)"
              d="M5.59766279,0.040131721 C5.13544568,0.0422794487 4.69403869,0.0816998924 4.30564598,0.150425839 C3.16148975,0.352560676 2.95375533,0.775646218 2.95375523,1.55588803 L2.95375523,2.58635022 L5.65753674,2.58635022 L5.65753674,2.92983761 L2.95375523,2.92983761 L1.93904934,2.92983761 C1.15325516,2.92983761 0.465191274,3.40214521 0.249973694,4.30063593 C0.00172293782,5.33051486 -0.00928833277,5.97317607 0.249973694,7.04853509 C0.442168145,7.84899076 0.901154521,8.41933321 1.6869485,8.41933341 L2.61657035,8.41933341 L2.61657035,7.18403929 C2.61657035,6.2916122 3.38871933,5.50441765 4.30564598,5.50441745 L7.00627624,5.50441745 C7.758036,5.50441745 8.35816729,4.88544292 8.35816699,4.13046787 L8.35816699,1.55588803 C8.35816699,0.823147966 7.74001775,0.272717193 7.00627624,0.150425839 C6.54180696,0.0731090017 6.0598799,0.0379839933 5.59766279,0.040131721 Z M4.13547792,0.868913244 C4.41475997,0.868913244 4.64283086,1.10070948 4.64283086,1.38571997 C4.64283066,1.66972024 4.41475997,1.89937543 4.13547792,1.89937543 C3.85519462,1.89937533 3.62812497,1.66972013 3.62812497,1.38571997 C3.62812487,1.10070958 3.85519462,0.868913244 4.13547792,0.868913244 Z"/>
        <path fill="url(#pythonconsoletoolwindow-b)"
              d="M8.69535187,2.92983761 L8.69535187,4.13046787 C8.69535187,5.0613003 7.90618598,5.84475348 7.00627624,5.84475358 L4.30564598,5.84475358 C3.56589812,5.84475358 2.95375533,6.47787792 2.95375523,7.21870316 L2.95375523,9.79328269 C2.95375523,10.5260229 3.59092376,10.9570124 4.30564598,11.1672323 C5.16151129,11.4188904 5.98224131,11.4643714 7.00627624,11.1672323 C7.68696413,10.9701509 8.35816729,10.5735237 8.35816699,9.79328269 L8.35816699,8.76282081 L5.65753674,8.76282081 L5.65753674,8.41933341 L8.35816699,8.41933341 L9.71005815,8.41933341 C10.4958524,8.41933341 10.7886716,7.87122504 11.0619479,7.04853509 C11.3442333,6.20158861 11.3322222,5.3871123 11.0619479,4.30063593 C10.8677516,3.51837297 10.4968518,2.92983761 9.71005815,2.92983761 L8.69535187,2.92983761 Z M7.1764443,9.4497956 C7.4567278,9.4497959 7.68379724,9.67945109 7.68379724,9.96345076 C7.68379704,10.2484608 7.4567275,10.4802575 7.1764443,10.4802575 C6.89716195,10.4802575 6.66909136,10.2484608 6.66909136,9.96345076 C6.66909156,9.67945109 6.89716165,9.4497956 7.1764443,9.4497956 Z"/>
    </g>
</svg>
