<svg xmlns="http://www.w3.org/2000/svg" width="13" height="13" viewBox="0 0 13 13">
    <g fill="none" fill-rule="evenodd">
        <path fill="#6E6E6E"
              d="M8.99996067,4.51901732 C7.50409296,4.91730403 6.40204515,6.28121573 6.40204515,7.90252448 C6.40204515,8.12406351 6.42262155,8.34079667 6.46196749,8.55091708 C5.86899949,8.83863905 5.20334368,9 4.5,9 C2.01471863,9 0,6.98528137 0,4.5 C0,2.01471863 2.01471863,0 4.5,0 C6.98528137,0 9,2.01471863 9,4.5 C9,4.50634218 8.99998688,4.5126813 8.99996067,4.51901732 Z M4.00127822,5 L4.00127822,5.00159777 L5.00159777,5.00159777 L5.00159777,2.00063911 L4.00127822,2.00063911 L4.00127822,4 L2,4 L2,5 L4.00127822,5 Z"/>
        <path fill="#3F89EC"
              d="M10.0499998,12.6999999 C8.49999981,12.6999999 7.34999981,11.8999999 7.34999981,10.6799999 L7.34999981,10.6599999 C7.34999981,9.8099999 7.73999981,9.3099999 8.47999981,8.9699999 C7.93999981,8.6399999 7.58999981,8.1899999 7.58999981,7.4399999 L7.58999981,7.4199999 C7.58999981,6.3499999 8.56999981,5.4999999 10.0499998,5.4999999 C11.5299998,5.4999999 12.5099998,6.3399999 12.5099998,7.4199999 L12.5099998,7.4399999 C12.5099998,8.1899999 12.1599998,8.6399999 11.6199998,8.9699999 C12.3299998,9.3399999 12.7499998,9.7899999 12.7499998,10.6199999 L12.7499998,10.6399999 C12.7499998,11.9399999 11.5999998,12.6999999 10.0499998,12.6999999 Z M10.0499998,8.4599999 C10.6599998,8.4599999 11.0499998,8.0999999 11.0499998,7.6099999 L11.0499998,7.5899999 C11.0499998,7.1599999 10.6799998,6.7699999 10.0499998,6.7699999 C9.41999981,6.7699999 9.04999981,7.1499999 9.04999981,7.5799999 L9.04999981,7.5999999 C9.04999981,8.0899999 9.43999981,8.4599999 10.0499998,8.4599999 Z M10.0499998,11.4299999 C10.8099998,11.4299999 11.2599998,11.0499999 11.2599998,10.5599999 L11.2599998,10.5399999 C11.2599998,9.9999999 10.7499998,9.6799999 10.0499998,9.6799999 C9.34999981,9.6799999 8.83999981,9.9999999 8.83999981,10.5399999 L8.83999981,10.5599999 C8.83999981,11.0399999 9.28999981,11.4299999 10.0499998,11.4299999 Z"/>
    </g>
</svg>
