<svg xmlns="http://www.w3.org/2000/svg" width="13" height="13" viewBox="0 0 13 13">
    <g fill="none" fill-rule="evenodd">
        <path fill="#6E6E6E"
              d="M9,2 L12,2 L12,3 L9,3 L9,4.62423372 C7.55425553,4.99304052 6.5,6.14099116 6.5,7.5 C6.5,8.04643072 6.67044,8.55873995 6.96823768,9 L3,9 L3,7 L0,7 L0,6 L3,6 L3,5 L0,5 L0,4 L3,4 L3,3 L0,3 L0,2 L3,2 L3,0 L9,0 L9,2 Z"/>
        <path fill="#3F89EC"
              d="M10.0499998,12.6999999 C8.49999981,12.6999999 7.34999981,11.8999999 7.34999981,10.6799999 L7.34999981,10.6599999 C7.34999981,9.8099999 7.73999981,9.3099999 8.47999981,8.9699999 C7.93999981,8.6399999 7.58999981,8.1899999 7.58999981,7.4399999 L7.58999981,7.4199999 C7.58999981,6.3499999 8.56999981,5.4999999 10.0499998,5.4999999 C11.5299998,5.4999999 12.5099998,6.3399999 12.5099998,7.4199999 L12.5099998,7.4399999 C12.5099998,8.1899999 12.1599998,8.6399999 11.6199998,8.9699999 C12.3299998,9.3399999 12.7499998,9.7899999 12.7499998,10.6199999 L12.7499998,10.6399999 C12.7499998,11.9399999 11.5999998,12.6999999 10.0499998,12.6999999 Z M10.0499998,8.4599999 C10.6599998,8.4599999 11.0499998,8.0999999 11.0499998,7.6099999 L11.0499998,7.5899999 C11.0499998,7.1599999 10.6799998,6.7699999 10.0499998,6.7699999 C9.41999981,6.7699999 9.04999981,7.1499999 9.04999981,7.5799999 L9.04999981,7.5999999 C9.04999981,8.0899999 9.43999981,8.4599999 10.0499998,8.4599999 Z M10.0499998,11.4299999 C10.8099998,11.4299999 11.2599998,11.0499999 11.2599998,10.5599999 L11.2599998,10.5399999 C11.2599998,9.9999999 10.7499998,9.6799999 10.0499998,9.6799999 C9.34999981,9.6799999 8.83999981,9.9999999 8.83999981,10.5399999 L8.83999981,10.5599999 C8.83999981,11.0399999 9.28999981,11.4299999 10.0499998,11.4299999 Z"/>
    </g>
</svg>
