<svg xmlns="http://www.w3.org/2000/svg" width="13" height="13" viewBox="0 0 13 13">
    <g fill="none" transform="translate(0 1)">
        <polygon fill="#9A9A9A" points="0 0 1.598 2.989 2.552 2.982 2.552 .848" transform="translate(0 1.256)"/>
        <polygon fill="#9A9A9A" points=".097 .816 0 2.951 1.039 2.951 2.672 0" transform="translate(10.316 1.287)"/>
        <path fill="#4D4D4D"
              d="M9.60637527,0.0313933832 L7.53441198,3.61023907 L5.33687515,3.64163246 L3.29630524,0 L0,0 L1.03598165,1.94638976 L1.91499638,1.94638976 L3.64163246,4.99154794 L6.40425018,10.1086694 L9.10408114,5.242695 L10.9562908,1.94638976 L11.9294856,1.94638976 L12.9968607,0.0313933832 L9.60637527,0.0313933832 Z M6.41994687,6.5612171 C5.76977107,6.5612171 5.242695,6.03414417 5.242695,5.38396523 C5.242695,4.73378942 5.76977107,4.20671335 6.41994687,4.20671335 C7.07012582,4.20671335 7.59719874,4.73378942 7.59719874,5.38396523 C7.59719874,6.03414417 7.07012582,6.5612171 6.41994687,6.5612171 Z"
              transform="translate(.003 1.256)"/>
        <path fill="#3F89EC"
              d="M5.34405168,4.24499131 C5.67156943,3.80260517 5.86527602,3.2552113 5.86527602,2.66256387 C5.86527602,1.19207269 4.67294277,0 3.20212509,0 C1.73130427,0 0.538974161,1.19207269 0.538974161,2.66256387 C0.538974161,3.2552113 0.732680753,3.80260517 1.0601985,4.24499445 C0.409288095,4.83098334 0,5.68004564 0,6.62471335 C0,8.39280753 1.43364163,9.82612895 3.20212509,9.82612895 C4.97060855,9.82612895 6.40425018,8.39280753 6.40425018,6.62471335 C6.40425018,5.68004564 5.99496523,4.83098334 5.34405168,4.24499131 Z M3.21782178,2.00917653 C3.57325453,2.00917653 3.86138614,2.29730814 3.86138614,2.65274088 C3.86138614,3.00817363 3.57325453,3.29630524 3.21782178,3.29630524 C2.86238904,3.29630524 2.57425743,3.00817363 2.57425743,2.65274088 C2.57425743,2.29730814 2.86238904,2.00917653 3.21782178,2.00917653 Z M3.20212509,7.53441198 C2.69932239,7.53441198 2.29171698,7.12680657 2.29171698,6.62400386 C2.29171698,6.12120116 2.69932239,5.71359575 3.20212509,5.71359575 C3.7049278,5.71359575 4.1125332,6.12120116 4.1125332,6.62400386 C4.1125332,7.12680657 3.7049278,7.53441198 3.20212509,7.53441198 Z"
              transform="translate(3.237)"/>
    </g>
</svg>
