<svg xmlns="http://www.w3.org/2000/svg" width="13" height="13" viewBox="0 0 13 13">
    <g fill="none" transform="translate(1)">
        <path fill="#FBA919"
              d="M1.21226901,3.09487427 C1.21226901,3.09487427 1.43034211,3.93595906 1.46143567,4.21637135 C1.49264327,4.4967076 0.900725146,5.1197193 0.900725146,5.43126316 C0.900725146,5.74280702 1.02517544,6.30351754 1.71060234,6.58392982 C2.39602924,6.86430409 2.48938596,7.58074854 2.48938596,8.01697076 C2.48938596,8.45307895 2.2402193,9.29408772 2.2402193,9.29408772 C2.2402193,9.29408772 2.08452339,11.3812339 2.92553216,11.7550409 C3.76654094,12.1288099 3.57971345,12.1288099 3.76654094,12.1288099 C3.95340643,12.1288099 5.3241462,12.6896725 6.13402339,12.4715994 C6.94397661,12.2535263 7.16189766,12.0043596 7.16189766,12.0043596 C7.16189766,12.0043596 7.9719269,12.0665848 8.22109357,11.3500263 C8.47041228,10.6336199 8.62607018,9.13839181 8.53259942,8.45300292 C8.43912865,7.76757602 8.31456433,6.86434211 8.87523684,6.55276023 C9.43609942,6.24121637 10.0279035,5.86752339 9.93443275,5.55594152 C9.84096199,5.24439766 9.34266667,4.80825146 9.34266667,4.80825146 C9.34266667,4.80825146 9.21802632,4.02954386 9.31142105,3.84260234 C9.40481579,3.65569883 9.96560234,3.18830702 9.65405848,2.8457076 C9.34270468,2.50307018 8.78180409,2.50307018 8.78180409,2.50307018 L8.06539766,2.56529532 C8.06539766,2.56529532 6.85050585,1.47504386 5.26176901,1.53734503 C3.67310819,1.5996462 2.67617544,2.56529532 2.67617544,2.56529532 C2.67617544,2.56529532 2.14667251,2.37839181 1.67935673,2.56529532 C1.21204094,2.75227485 1.11887427,2.56525731 1.21226901,3.09487427 Z"/>
        <path fill="#E78724"
              d="M4.05869883 7.73298538C4.05869883 7.73298538 3.44180702 8.67624561 2.98931579 9.34563158 2.91929825 9.44917544 3.44180702 9.45635965 3.44180702 9.45635965L4.05869883 7.73298538zM4.3524152 5.77735965C4.3524152 5.77735965 4.16646199 6.2412924 4.06459064 6.48722807 3.95401462 6.75460234 3.5324269 6.88760526 3.5324269 6.88760526 3.5324269 6.88760526 3.75095614 6.65839474 3.75095614 6.07772807 3.75095614 5.83411111 4.06546491 5.73725731 4.06546491 5.73725731L4.3524152 5.77735965z"/>
        <path fill="#E78724"
              d="M4.1645614 6.03967836C4.1645614 6.03967836 3.78357018 6.49319591 3.07617251 6.23920175 2.36862281 5.98528363 2.29609649 5.0781345 2.29609649 4.82414035 2.29609649 4.5701462 3.63855556 5.0781345 3.82002339 5.187 4.00149123 5.2958655 4.34595322 5.73121345 4.1645614 6.03967836zM1.49237719 1.19352924C1.49237719 1.19352924 2.14541813 1.06645614 2.58076608 1.41118421 3.01630409 1.75583626 3.14311111 2.02803801 3.14311111 2.02803801L2.40929532 2.60973099C2.40929532 2.60973099 2.05472222 2.44533041 1.94585673 1.97360526 1.83702924 1.50191813 1.90959357 1.28426316 1.49237719 1.19352924z"/>
        <path fill="#E78724"
              d="M3.9740848 4.72968129C3.69291228 4.33055848 3.22954971 4.15646491 2.85958187 4.12761404 2.22873977 4.07827485 1.92924561 4.30128947 1.92924561 4.30128947 1.92924561 4.30128947 2.96240351 4.34504094 3.26018713 4.73614327 3.81454971 5.46406725 4.62328655 5.52321345 4.75260234 5.36333626 4.60306433 5.37078655 4.43854971 5.29670175 4.26247953 5.13021053 4.15247368 5.02605848 4.06329825 4.85637427 3.9740848 4.72968129zM2.22999415 6.14094152C2.22999415 6.14094152 1.08367544 5.74687427 1.30155848 5.34782749 1.51921345 4.94866667 1.34595614 4.73120175 1.34595614 4.73120175 1.34595614 4.73120175.705877193 5.20900877.86898538 5.71692105.969222222 6.02869298 1.13738596 6.25440643 2.06080409 6.68716959 2.50371637 7.50985673 2.15226023 8.99067836 2.17331871 8.9976345 2.20840351 9.00930409 2.79519006 8.70760526 2.75512573 7.32219298 2.74292398 6.89676608 2.70890351 6.31598538 2.22999415 6.14094152zM3.73214035 1.90339766C3.25148246 2.1475848 2.59300585 2.48763743 2.59300585 2.48763743L2.85216959 2.61729532C2.82742398 2.65735965 2.8154883 2.68126901 2.8154883 2.68126901L3.08149415 2.80222222C3.08149415 2.80222222 3.73084795 3.27261696 4.12871637 3.57503801 3.99605556 3.16656433 3.60666374 2.52485088 3.60666374 2.52485088 3.60666374 2.52485088 3.49631579 2.22999415 3.73214035 1.90339766zM5.32889766 11.8571404C3.85153509 11.8571404 3.35111111 11.1071316 3.35111111 11.1071316L3.58199415 11.6693626C3.66926901 11.9125994 4.60025146 12.6694883 5.32665497 12.6694883"/>
        <path fill="#E78724"
              d="M3.51300292 10.6003596C3.51300292 10.6003596 3.64893275 11.4310673 4.19318421 11.4310673 4.65567251 11.4310673 4.79194444 10.7293713 4.79194444 10.5843567L3.51300292 10.6003596zM2.60729825 9.34753216C2.65564912 9.2144152 2.82495322 8.67624561 2.87934795 8.18646491 2.94453801 7.59986842 2.9207807 6.74190643 2.9207807 6.74190643 2.9207807 6.74190643 2.77557602 7.30428947 2.64857895 7.39517544 2.52165789 7.48583333 2.28575731 8.1025731 2.28575731 8.1025731 2.28575731 8.1025731 2.15940643 9.02078363 2.09927193 9.32940058 2.26568713 9.36273684 2.40579825 9.26466667 2.60729825 9.34753216zM1.29300585 5.70791228C1.29300585 5.70791228 1.60131871 5.59897076 1.69212865 4.92783626 1.78278655 4.25654971 1.58318713 3.67603509 1.58318713 3.67603509 1.58318713 3.67603509 1.60131871 4.60123977 1.49252924 4.7827076 1.38358772 4.9640614 1.29300585 5.01849415 1.16593275 5.25439474 1.03885965 5.49033333 1.22032749 5.63530994 1.29300585 5.70791228z"/>
        <path fill="#FDC168"
              d="M2.0293689,1.81242982 L1.79053424,1.31242982 C1.08628928,1.39107615 2.0293689,1.81242982 2.0293689,1.81242982 Z"/>
        <path fill="#FBA919"
              d="M3.98309357,1.70467251 C3.98309357,1.70467251 3.69291228,1.65632164 3.5477076,1.43866667 C3.40250292,1.22093567 2.99136842,0.785473684 2.33593275,0.780608187 C1.68053509,0.775704678 1.03209357,0.954815789 1.03209357,0.954815789 L1.59812573,1.31246784 C1.65799415,1.31052924 1.76267836,1.31132749 1.93578363,1.31710526 C2.6461462,1.34071053 2.75550585,2.04335673 2.75550585,2.04335673 L5.25903216,1.69862865"/>
        <path fill="#FFF"
              d="M4.22503801,5.58551462 C4.22503801,5.58551462 3.8863538,5.92419883 3.36623977,5.81525731 C2.84612573,5.70646784 2.53161696,5.47664912 2.50744152,5.0774883 C2.48326608,4.6783655 2.61638304,4.52114912 2.61638304,4.52114912 C2.61638304,4.52114912 3.19685965,4.70269298 3.47518129,4.94459942 C3.75335088,5.18642982 3.95891813,5.57346491 4.22503801,5.58551462 Z"/>
        <path fill="#C9C9C9"
              d="M3.81515789,5.46452339 C3.81515789,5.46452339 3.52144152,5.59870468 3.1931345,5.48942105 C2.76337427,5.34607895 2.73475146,4.89913743 2.73475146,4.89913743 C2.73475146,4.89913743 2.47110234,5.67282749 3.21027778,5.82175731 C3.8031462,5.94119006 4.15376608,5.59764035 4.15376608,5.59764035 L3.81515789,5.46452339 Z"/>
        <path fill="#463014"
              d="M4.02388012 1.54053801C3.9922924.877005848 4.53623977.34852924 4.72470175.326026316 4.73511696.438464912 4.71421053.87704386 4.9026345 1.01190936 4.95748538.653687135 5.14298246.258745614 5.87546784 0 5.71859357.416076023 5.85452339.764605263 5.91925731.926154971 6.41945322.472143275 6.75646491.547178363 6.75646491.547178363 6.75646491.547178363 6.40892398 1.14688889 6.5448538 1.54038596 5.54073684 1.46166374 4.02878363 1.6470848 4.02388012 1.54053801zM1.89514912 2.55123099C1.6555614 2.35246784 1.83414035 2.16799708 1.81521053 1.94216959 1.80490936 1.82201462 1.79540643 1.70862573 1.75579825 1.64609649 1.53533041 1.29794737 1.01521637 1.19231287 1.01000877 1.19121053L.765897661 1.14339181.92748538.954359649C.948429825.929880117 1.61203801.296719298 2.63896199.62825731 3.35730702.859938596 3.88909064 1.64556433 3.90889474 1.67730409L3.54869591 1.84668421C3.54447661 1.83999415 3.12406725 1.10154094 2.50778363.902815789 2.00960234.742064327 1.55045906.89498538 1.35378655.995222222 1.56285088 1.07869591 1.83619298 1.23070468 2.00089766 1.49074269 2.07859357 1.61355848 2.0917076 1.76819006 2.1043655 1.91791813 2.12105263 2.11614912 2.13667544 2.3032807 2.28256433 2.42446199L1.89514912 2.55123099zM1.25526023 5.45277778C1.25526023 5.45277778 1.63151319 5.07847661 1.74295343 4.3501345 1.78673352 4.06326023 1.70898121 3.49741813 1.58455856 3.27972515 1.60715933 3.81489181 1.43758253 4.3501345 1.43758253 4.3501345 1.43758253 4.3501345 1.32325205 5.34391228 1.25526023 5.45277778z"/>
        <path fill="#463014"
              d="M2.84692398 2.17320468C2.84677193 2.17240643 2.75007018 1.74983041 2.48197368 1.53650877 2.10379532 1.23568421 1.64202924 1.39571345 1.63758187 1.39711988L1.57052924 1.18999415C1.59288012 1.18273392 2.12067251 1.01643275 2.60707018 1.35834795 3.09639474 1.70220175 3.15512281 2.01389766 3.16021637 2.04833626L2.84692398 2.17320468zM2.21821427 5.18433918C2.21821427 5.18433918 2.04215314 4.95763743 2.07380696 4.70831871 2.08957047 4.58519883 2.15300488 4.45880994 2.26626551 4.41395614 2.47672744 4.33078655 2.56999842 4.54536257 2.56999842 4.54536257 2.56999842 4.54536257 2.27378805 4.61112281 2.21821427 5.18433918z"/>
        <path fill="#463014"
              d="M3.94207895,5.5298655 C3.94869298,5.5422193 3.95207602,5.54913743 3.95207602,5.54913743 C3.95207602,5.54913743 3.45815205,5.91982749 2.95195029,5.54366374 C2.68100292,5.34212573 2.7065848,4.84360234 2.78960234,4.63218129 C3.00547076,4.68110234 3.1885731,4.76928947 3.34160819,4.87226316 C3.14820468,4.69965205 2.97890058,4.57257895 2.97935673,4.56965205 L2.75953509,4.5074269 L2.33228363,4.36092982 C2.32680994,4.39350585 2.17096199,5.12397661 2.6207924,5.62170175 C2.82016374,5.84239766 3.75487135,6.33662573 4.19865789,5.49154971 L3.94207895,5.5298655 Z"/>
        <path fill="#463014"
              d="M3.89581871,5.58418421 C4.17391228,6.00744444 4.87557018,5.76557602 4.86348246,5.31810234 C4.86348246,5.31810234 4.3946462,5.57684795 3.98043275,5.10044737 C3.73860234,4.82231579 2.96369591,4.05542982 1.91282456,4.31029825 C2.63854386,4.46987135 3.59928947,5.13290936 3.89581871,5.58418421 Z"/>
        <path fill="#463014"
              d="M1.81464035,6.77873977 C1.88154094,6.81739766 2.11747953,7.06173684 2.11763158,7.42718129 C2.11763158,7.61043567 2.09938596,8.53104094 2.00869006,9.09346199 C2.14511404,9.18210526 2.24014327,9.20095906 2.37599708,9.29131287 C2.444,8.63994444 2.49276901,7.69588596 2.47003801,7.3147807 C2.44403801,6.88034503 2.21144444,6.58879532 1.99572807,6.46445906 C1.92818129,6.42561111 1.85759357,6.38740936 1.7865117,6.34897953 C1.41703801,6.14934211 1.03498246,5.94282456 1.03498246,5.59019006 C1.03498246,5.31433918 1.14221345,5.22805263 1.25575439,5.13659649 L1.26799415,5.12667544 C1.34333333,5.06581871 1.42859357,4.99678947 1.47911111,4.8834386 C1.61694152,4.57352924 1.63948246,3.78410234 1.47911111,3.58370468 C1.39917251,3.48384795 1.18497661,3.14805263 1.24655556,2.9224152 C1.27000877,2.8362807 1.32425146,2.77245906 1.41255263,2.72722515 C1.50598538,2.67936842 1.63222222,2.65511696 1.78761404,2.65511696 C2.09284795,2.65511696 2.43138012,2.74801754 2.60604386,2.80332456 C3.23015789,3.00113743 3.98324561,3.57146491 4.19911404,3.74156725 C4.20530994,3.74631871 4.20895906,3.74909357 4.20960526,3.74954971 L4.34773977,3.84560526 L4.26133918,3.70104678 C4.25601754,3.69203801 3.70887719,2.79237719 2.73057018,2.4625117 C2.54024561,2.39834795 2.16632456,2.29066082 1.7988655,2.29066082 C1.58007018,2.29066082 1.39442105,2.32886257 1.24742982,2.40412573 C1.0682807,2.49577193 0.946947368,2.64200292 0.89654386,2.8268538 C0.773005848,3.27999123 1.17535965,3.78452047 1.18908187,3.80063743 C1.2359883,3.88437719 1.25586842,4.49267836 1.14749708,4.73614327 C1.13259649,4.76974561 1.09173392,4.80277778 1.04,4.84451462 C1.02380702,4.85762865 1.00567544,4.87123684 0.986479532,4.88579532 C0.833596491,5.00119883 0.602409357,5.17555848 0.602409357,5.57745614 C0.602409357,6.12737135 1.15973684,6.42553509 1.60762865,6.66527485 C1.68110526,6.70480702 1.75123684,6.74221053 1.81464035,6.77873977 Z"/>
        <g fill="#463014" transform="translate(.684 .494)">
            <path d="M1.2109386,2.05707895 C0.971350877,1.85831579 1.14992982,1.67384503 1.131,1.44801754 C1.12069883,1.32786257 1.11119591,1.21447368 1.07158772,1.15194444 C0.851119883,0.803795322 0.331005848,0.698160819 0.325798246,0.69705848 L0.0816871345,0.649239766 L0.243274854,0.460207602 C0.264219298,0.43572807 0.927827485,-0.197432749 1.95475146,0.134105263 C2.67309649,0.36578655 3.20488012,1.15141228 3.22468421,1.18315205 L2.86448538,1.35253216 C2.86026608,1.34584211 2.43985673,0.607388889 1.8235731,0.408663743 C1.32539181,0.247912281 0.866248538,0.400833333 0.669576023,0.501070175 C0.878640351,0.58454386 1.15198246,0.736552632 1.31668713,0.996590643 C1.39438304,1.11940643 1.40749708,1.27403801 1.42015497,1.42376608 C1.43684211,1.62199708 1.45246491,1.80912865 1.5983538,1.93030994 L1.2109386,2.05707895 Z"/>
            <path d="M1.2031462,2.09778947 L1.18767544,2.08497953 C1.01000877,1.93753216 1.04152047,1.79228947 1.07204386,1.65176023 C1.08591813,1.58691228 1.10055263,1.51985965 1.09462281,1.45109649 C1.08492982,1.33546491 1.07561696,1.22637135 1.04079825,1.1712924 C0.830859649,0.839830409 0.323517544,0.733625731 0.3185,0.732599415 L0.0136081871,0.672807018 L0.215716374,0.436526316 C0.219403509,0.432116959 0.645476608,0.00201461988 1.36709064,0.00201461988 C1.56380117,0.00201461988 1.76533918,0.0347426901 1.96585088,0.0995146199 C2.71559357,0.341269006 3.25045614,1.15582164 3.2555117,1.16388012 L3.27714035,1.19847076 L2.85106725,1.39886842 L2.83396199,1.37172807 C2.78811988,1.29357602 2.38413158,0.627345029 1.81262573,0.442988304 C1.67224854,0.397678363 1.52438304,0.374795322 1.37321053,0.374795322 C1.09941228,0.374795322 0.877385965,0.449412281 0.759245614,0.499511696 C0.956678363,0.588421053 1.19611404,0.738073099 1.34762865,0.97701462 C1.43,1.10716667 1.44334211,1.26624561 1.45641813,1.4199269 C1.47245906,1.61104971 1.48762573,1.79076901 1.62169298,1.90206725 L1.67228655,1.94403216 L1.2031462,2.09778947 Z"/>
        </g>
        <g fill="#463014" transform="translate(1.52 1.102)">
            <path d="M1.32645614,1.0708655 C1.32630409,1.07006725 1.22960234,0.647491228 0.961505848,0.434169591 C0.583327485,0.133345029 0.121561404,0.293374269 0.117114035,0.294780702 L0.0500614035,0.0876549708 C0.0724122807,0.0803947368 0.600204678,-0.0859064327 1.08660234,0.256008772 C1.5759269,0.599862573 1.63465497,0.91155848 1.63974854,0.945997076 L1.32645614,1.0708655 Z"/>
            <path d="M1.30045614,1.1202807 L1.29102924,1.07869591 C1.29004094,1.07462865 1.19520175,0.666497076 0.938812865,0.462640351 C0.792695906,0.34628655 0.616473684,0.287216374 0.415353801,0.287216374 C0.258365497,0.287216374 0.141707602,0.324695906 0.128973684,0.329105263 L0.0943070175,0.340622807 L0.00437134503,0.0643157895 L0.0388479532,0.0531783626 C0.0543187135,0.0482748538 0.194391813,0.0045994152 0.392546784,0.0045994152 C0.653953216,0.0045994152 0.901105263,0.0813070175 1.1075848,0.226283626 C1.60914912,0.578766082 1.67038596,0.904716374 1.67563158,0.940675439 L1.68004094,0.969108187 L1.30045614,1.1202807 Z M0.415391813,0.214766082 C0.630233918,0.214766082 0.827020468,0.280830409 0.984084795,0.405736842 C1.21173684,0.587052632 1.31881579,0.907149123 1.35120175,1.02190643 L1.59797368,0.923570175 C1.57562281,0.836447368 1.47724854,0.574964912 1.06580994,0.285733918 C0.868947368,0.147371345 0.642511696,0.0772777778 0.392584795,0.0772777778 C0.255438596,0.0772777778 0.148891813,0.0990964912 0.096245614,0.112400585 L0.14075731,0.249964912 C0.192377193,0.236090643 0.291701754,0.214766082 0.415391813,0.214766082 Z"/>
        </g>
        <path fill="#463014"
              d="M4.17045322 11.2317719C4.06326023 11.2317719 3.95386257 11.192886 3.87802924 11.1272398 3.81998538 11.0772164 3.62369298 10.8969269 3.53714035 10.6760409 3.50483041 10.5934415 3.51209064 10.5273772 3.55895906 10.4798246 3.59126901 10.4472485 3.65832164 10.4082865 3.79444152 10.4082865L3.89129532 10.4081345C4.00669883 10.4080205 4.20101462 10.4080205 4.36708772 10.4080205L4.52631871 10.4080205C4.62986257 10.4080205 4.70409942 10.4304094 4.74678655 10.4740468 4.80159942 10.5303801 4.78403801 10.6020322 4.7687193 10.6397398 4.74203509 10.7058041 4.63161111 10.9207982 4.44466959 11.1206637 4.37773099 11.1922778 4.28030702 11.2317719 4.17045322 11.2317719zM4.33140996 5.60908187L3.8957807 5.58418421C3.8957807 5.58418421 4.00714811 5.75858187 4.07928236 5.98414327 4.16074358 6.23927778 4.00479498 6.6121345 4.00479498 6.6121345 4.00479498 6.6121345 4.58563399 6.02789474 4.33140996 5.60908187zM3.79968713 12.2537164C2.42218129 12.1478538 1.93753216 10.8462193 1.93753216 10.5751199L2.29727485 10.5752719 2.11740351 10.5751199 2.29727485 10.5751199C2.2990614 10.6923099 2.66515205 11.8057485 3.82724561 11.895114L3.79968713 12.2537164z"/>
        <path fill="#FFF"
              d="M3.41257602,9.92166082 C3.3910614,9.79724854 3.38881871,9.67926023 3.4150848,9.56332456 C3.31040058,9.48464035 3.12254678,9.45540936 2.98159942,9.4097193 C2.86634795,9.33677485 2.27655848,9.4844883 1.84866082,8.96665497 C1.31254386,8.31821345 1.42536257,7.93106433 1.42536257,7.93106433 C1.28791228,8.08379532 1.15468129,8.02559942 0.945160819,8.73771053 C0.735336257,9.44997368 1.04364912,9.94652047 1.61827193,10.4450058 C1.88975146,10.6804883 2.27351754,10.7774942 2.60361111,10.8146316 C2.49303509,10.7035994 2.79249123,10.6925 2.99889474,10.6152602 C2.98243567,10.448617 3.00999415,10.2868392 3.13425439,10.1565731 C3.20917544,10.0780409 3.3055731,10.0310965 3.40558187,9.99369298 C3.41116959,9.98076901 3.41588304,9.96883333 3.42120468,9.95644152 C3.41789766,9.94511404 3.41466667,9.93367251 3.41257602,9.92166082 Z"/>
        <path fill="#C9C9C9"
              d="M2.99611988,10.6109269 C2.98418421,10.5759561 2.97517544,10.5403012 2.96631871,10.5044181 C2.95677778,10.4652281 2.90926316,10.3541959 2.96783918,10.4809649 C2.95278655,10.4485029 2.94294152,10.4150526 2.93568129,10.3813363 C2.00507895,10.3801579 1.19546784,9.7412193 1.35188596,8.39792398 C1.23005848,8.23618421 1.05946199,8.72406433 1.05946199,8.72406433 C1.05946199,8.72406433 0.593590643,10.0768246 1.79681287,10.6011199 C2.19772222,10.7759737 2.55202924,10.9012982 2.63561696,10.8507047 C2.80974854,10.8860936 2.9669269,10.7646842 3.02588304,10.6848596 C3.01482164,10.6603421 3.00474854,10.6357865 2.99611988,10.6109269 Z"/>
        <path fill="#463014"
              d="M3.39581287,9.72688889 C3.39725731,9.6135 3.42040643,9.50368421 3.4752193,9.39424854 C3.47905848,9.38672222 3.48350585,9.3795 3.48761111,9.37216374 C3.12950292,9.3690848 2.71707602,9.33479825 2.36588596,9.19423099 C1.97987719,9.03982749 1.49701462,8.51157895 1.41403509,7.89092398 C1.41403509,7.89092398 0.687061404,8.45190058 0.900687135,9.65261404 C1.10119883,10.780117 2.04468713,11.1476901 3.12072222,11.2098772 C3.1212924,11.2025789 2.99969298,10.9513977 3.03812281,10.7976404 C2.42712281,10.842038 1.74386257,10.6059854 1.41403509,10.0632544 C1.11207018,9.56651754 1.19676023,8.7184386 1.32086842,8.59417836 C1.62359357,9.54937427 2.71285673,9.74353801 3.39581287,9.72688889 Z"/>
        <path fill="#463014"
              d="M3.50855556,9.04305848 C3.31492398,9.61129532 2.91941228,10.0711608 2.91941228,10.0711608 C2.91941228,10.0711608 3.46347368,10.0464152 3.49350292,9.95013158 C3.51573977,9.87916374 3.98476608,8.78119591 4.16478947,7.49499415 C3.99544737,7.77320175 3.52512865,8.99440351 3.50855556,9.04305848 Z"/>
        <path fill="#E78724"
              d="M6.59096199 7.73298538C6.59096199 7.73298538 7.20770175 8.67624561 7.66034503 9.34563158 7.73036257 9.44917544 7.20770175 9.45635965 7.20770175 9.45635965L6.59096199 7.73298538zM6.29716959 5.77735965C6.29716959 5.77735965 6.48316082 6.2412924 6.58488012 6.48722807 6.69545614 6.75460234 7.11700585 6.88760526 7.11700585 6.88760526 7.11700585 6.88760526 6.89851462 6.65839474 6.89851462 6.07772807 6.89851462 5.83411111 6.58404386 5.73725731 6.58404386 5.73725731L6.29716959 5.77735965z"/>
        <path fill="#E78724"
              d="M6.48498538 6.03967836C6.48498538 6.03967836 6.86597661 6.49319591 7.57356433 6.23920175 8.28115205 5.9852076 8.35364035 5.0781345 8.35364035 4.82414035 8.35364035 4.5701462 7.01118129 5.0781345 6.82971345 5.187 6.64824561 5.2958655 6.30363158 5.73121345 6.48498538 6.03967836zM9.15724561 1.19352924C9.15724561 1.19352924 8.50420468 1.06645614 8.06870468 1.41118421 7.63335673 1.75583626 7.50632164 2.02803801 7.50632164 2.02803801L8.24017544 2.60969298C8.24017544 2.60969298 8.59490058 2.4452924 8.70376608 1.97356725 8.81255556 1.50191813 8.74002924 1.28426316 9.15724561 1.19352924z"/>
        <path fill="#E78724"
              d="M6.67553801 4.72968129C6.95671053 4.33055848 7.41992105 4.15646491 7.79004094 4.12761404 8.42092105 4.07827485 8.72026316 4.30128947 8.72026316 4.30128947 8.72026316 4.30128947 7.68710526 4.34504094 7.38928363 4.73614327 6.83488304 5.46406725 6.02641228 5.52321345 5.89709649 5.36333626 6.04659649 5.37078655 6.21118713 5.29670175 6.38714327 5.13021053 6.49711111 5.02605848 6.58632456 4.85637427 6.67553801 4.72968129zM8.41962865 6.14094152C8.41962865 6.14094152 9.56579532 5.74687427 9.34810234 5.34782749 9.13044737 4.94866667 9.30355263 4.73120175 9.30355263 4.73120175 9.30355263 4.73120175 9.94378363 5.20900877 9.78052339 5.71692105 9.68028655 6.02869298 9.51212281 6.25440643 8.58870468 6.68716959 8.1457924 7.50985673 8.49724854 8.99067836 8.47630409 8.9976345 8.44118129 9.00930409 7.85447076 8.70760526 7.89453509 7.32219298 7.90669883 6.89676608 7.9407193 6.31598538 8.41962865 6.14094152zM6.91752047 1.90339766C7.39802632 2.1475848 8.05661696 2.48763743 8.05661696 2.48763743L7.79749123 2.61729532C7.82223684 2.65735965 7.83421053 2.68126901 7.83421053 2.68126901L7.56820468 2.80222222C7.56820468 2.80222222 6.91881287 3.27261696 6.52094444 3.57503801 6.65345322 3.16656433 7.04284503 2.52485088 7.04284503 2.52485088 7.04284503 2.52485088 7.15338304 2.22999415 6.91752047 1.90339766zM5.32080117 11.8571404C6.79793567 11.8571404 7.29835965 11.1071316 7.29835965 11.1071316L7.06762865 11.6693626C6.9803538 11.9125994 6.04929532 12.6694883 5.32304386 12.6694883"/>
        <path fill="#E78724"
              d="M7.13661988 10.6003596C7.13661988 10.6003596 7.00053801 11.4310673 6.4564386 11.4310673 5.99402632 11.4310673 5.85771637 10.7293713 5.85771637 10.5843567L7.13661988 10.6003596zM8.04232456 9.34753216C7.99397368 9.2144152 7.82466959 8.67624561 7.77012281 8.18646491 7.70493275 7.59986842 7.72884211 6.74190643 7.72884211 6.74190643 7.72884211 6.74190643 7.87400877 7.30428947 8.0008538 7.39517544 8.12796491 7.48583333 8.36371345 8.1025731 8.36371345 8.1025731 8.36371345 8.1025731 8.49006433 9.02078363 8.55019883 9.32940058 8.38382164 9.36273684 8.24386257 9.26466667 8.04232456 9.34753216zM9.35673099 5.70791228C9.35673099 5.70791228 9.04826608 5.59897076 8.95760819 4.92783626 8.86695029 4.25654971 9.0665117 3.67603509 9.0665117 3.67603509 9.0665117 3.67603509 9.04826608 4.60123977 9.15716959 4.7827076 9.26611111 4.96413743 9.35673099 5.01849415 9.48376608 5.25439474 9.61064912 5.49029532 9.42925731 5.63530994 9.35673099 5.70791228z"/>
        <path fill="#FDC168"
              d="M8.98843567,1.81242982 L9.22750386,1.31242982 C9.93130678,1.39107615 8.98843567,1.81242982 8.98843567,1.81242982 Z"/>
        <path fill="#FBA919"
              d="M6.6664152,1.70467251 C6.6664152,1.70467251 6.95674854,1.65632164 7.10180117,1.43866667 C7.24696784,1.22093567 7.65825439,0.785473684 8.31372807,0.780608187 C8.96912573,0.775704678 9.61756725,0.954815789 9.61756725,0.954815789 L9.05149708,1.31246784 C8.99162865,1.31052924 8.88694444,1.31132749 8.71368713,1.31710526 C8.0034386,1.34071053 7.89407895,2.04335673 7.89407895,2.04335673 L5.39062865,1.69862865"/>
        <path fill="#FFF"
              d="M6.4245848,5.58551462 C6.4245848,5.58551462 6.76326901,5.92419883 7.28326901,5.81525731 C7.80342105,5.70646784 8.11789181,5.47664912 8.14210526,5.0774883 C8.16624269,4.6783655 8.03327778,4.52114912 8.03327778,4.52114912 C8.03327778,4.52114912 7.45264912,4.70269298 7.17447953,4.94459942 C6.89630994,5.18650585 6.69074269,5.57346491 6.4245848,5.58551462 Z"/>
        <path fill="#C9C9C9"
              d="M6.83435088,5.46452339 C6.83435088,5.46452339 7.12818129,5.59870468 7.45637427,5.48942105 C7.88624854,5.34607895 7.91487135,4.89913743 7.91487135,4.89913743 C7.91487135,4.89913743 8.17836842,5.67282749 7.43919298,5.82175731 C6.8464386,5.94119006 6.49574269,5.59764035 6.49574269,5.59764035 L6.83435088,5.46452339 Z"/>
        <path fill="#463014"
              d="M8.75443567 2.55123099C8.99402339 2.35246784 8.81559649 2.16799708 8.83452632 1.94216959 8.84463743 1.82201462 8.85414035 1.70862573 8.89378655 1.64609649 9.1142924 1.29794737 9.63436842 1.19231287 9.63972807 1.19121053L9.88387719 1.14339181 9.72225146.954359649C9.70130702.929880117 9.03769883.296719298 8.01062281.62825731 7.29239181.859938596 6.76060819 1.64556433 6.74084211 1.67730409L7.10088889 1.84668421C7.10526023 1.83999415 7.5257076 1.10154094 8.14199123.902815789 8.6401345.742064327 9.09927778.89498538 9.29583626.995222222 9.08688596 1.07869591 8.81342982 1.23070468 8.64872515 1.49074269 8.57102924 1.61355848 8.55802924 1.76819006 8.54540936 1.91791813 8.52872222 2.11614912 8.51294737 2.3032807 8.36702047 2.42446199L8.75443567 2.55123099zM9.49322378 5.45277778C9.49322378 5.45277778 9.11702827 5.07847661 9.00554888 4.3501345 8.96175341 4.06326023 9.03939084 3.49741813 9.16380979 3.27972515 9.14120109 3.81489181 9.31097964 4.3501345 9.31097964 4.3501345 9.31097964 4.3501345 9.42539768 5.34391228 9.49322378 5.45277778z"/>
        <path fill="#463014"
              d="M7.80269883 2.17320468C7.80285088 2.17240643 7.89955263 1.74983041 8.16768713 1.53650877 8.54582749 1.23568421 9.00763158 1.39571345 9.0119269 1.39711988L9.07916959 1.18999415C9.05674269 1.18273392 8.52902632 1.01643275 8.04247661 1.35834795 7.55315205 1.70220175 7.49457602 2.01389766 7.48933041 2.04833626L7.80269883 2.17320468zM8.481754 5.18433918C8.481754 5.18433918 8.6578462 4.95763743 8.62601772 4.70831871 8.6104205 4.58519883 8.5469749 4.45880994 8.43369428 4.41395614 8.22319521 4.33078655 8.1298655 4.54536257 8.1298655 4.54536257 8.1298655 4.54536257 8.42617041 4.61112281 8.481754 5.18433918z"/>
        <path fill="#463014"
              d="M6.70758187,5.5298655 C6.70096784,5.5422193 6.69754678,5.54913743 6.69754678,5.54913743 C6.69754678,5.54913743 7.19131871,5.91982749 7.69752047,5.54366374 C7.96865789,5.34212573 7.94303801,4.84360234 7.85986842,4.63218129 C7.64411404,4.68110234 7.46104971,4.76928947 7.3079386,4.87226316 C7.50138012,4.69965205 7.67068421,4.57257895 7.67007602,4.56965205 L7.89004971,4.5074269 L8.31726316,4.36100585 C8.32273684,4.39358187 8.47854678,5.12405263 8.02856433,5.62177778 C7.82923099,5.84247368 6.89452339,6.33670175 6.45085088,5.49162573 L6.70758187,5.5298655 Z"/>
        <path fill="#463014"
              d="M6.75369006,5.58418421 C6.47559649,6.00744444 5.77412865,5.76557602 5.78625439,5.31810234 C5.78625439,5.31810234 6.2549386,5.57684795 6.66915205,5.10044737 C6.91098246,4.82231579 7.68604094,4.05542982 8.73687427,4.31029825 C8.01119298,4.46987135 7.05037135,5.13290936 6.75369006,5.58418421 Z"/>
        <path fill="#463014"
              d="M8.83509649,6.77873977 C8.76815789,6.81739766 8.53210526,7.06173684 8.53210526,7.42718129 C8.53195322,7.61043567 8.55023684,8.53104094 8.64104678,9.09346199 C8.5045848,9.18210526 8.40955556,9.20095906 8.27370175,9.29131287 C8.20569883,8.63994444 8.15677778,7.69588596 8.17966082,7.3147807 C8.20562281,6.88034503 8.43814035,6.58879532 8.65381871,6.46445906 C8.7213655,6.42561111 8.79199123,6.38740936 8.86322515,6.34897953 C9.23269883,6.14934211 9.61475439,5.94282456 9.61475439,5.59019006 C9.61475439,5.31433918 9.50740936,5.22805263 9.39386842,5.13659649 L9.3817807,5.12667544 C9.30644152,5.06581871 9.22102924,4.99678947 9.17066374,4.8834386 C9.03279532,4.57352924 9.01017836,3.78410234 9.1705117,3.58370468 C9.25045029,3.48384795 9.46479825,3.14805263 9.4032193,2.9224152 C9.37961404,2.8362807 9.32533333,2.77245906 9.23707018,2.72722515 C9.14359942,2.67936842 9.01755263,2.65511696 8.86200877,2.65511696 C8.55696491,2.65511696 8.21824269,2.74801754 8.04373099,2.80332456 C7.41961696,3.00113743 6.66652924,3.57146491 6.45050877,3.74156725 C6.44435088,3.74631871 6.44077778,3.74909357 6.44009357,3.74954971 L6.30188304,3.84560526 L6.38828363,3.70104678 C6.39375731,3.69203801 6.94078363,2.79237719 7.91905263,2.4625117 C8.1094152,2.39834795 8.48329825,2.29066082 8.85079532,2.29066082 C9.06959064,2.29066082 9.25504971,2.32886257 9.40219298,2.40412573 C9.58138012,2.49577193 9.70263743,2.64200292 9.75311696,2.8268538 C9.87665497,3.27999123 9.47426316,3.78452047 9.46054094,3.80063743 C9.4136345,3.88437719 9.3937924,4.49267836 9.5020117,4.73614327 C9.51691228,4.76974561 9.55777485,4.80277778 9.60962281,4.84451462 C9.62581579,4.85762865 9.64379532,4.87123684 9.66314327,4.88579532 C9.81606433,5.00119883 10.0471374,5.17555848 10.0471374,5.57745614 C10.0471374,6.12737135 9.48980994,6.42553509 9.04207018,6.66527485 C8.96851754,6.70480702 8.89830994,6.74221053 8.83509649,6.77873977 Z"/>
        <path fill="#463014"
              d="M8.17023392,2.48653509 C8.08159064,2.33638889 7.85488889,2.04647368 7.33238012,1.7917193 C6.7492807,1.50750585 6.07442105,1.36325146 5.32623684,1.36290936 L5.32623684,1.36275731 C5.32623684,1.36275731 5.32524854,1.36275731 5.3247924,1.36275731 C5.3247924,1.36275731 5.32380409,1.36275731 5.32334795,1.36275731 L5.32334795,1.36283333 C4.57504971,1.36321345 3.90007602,1.50746784 3.31712865,1.79164327 C2.79461988,2.04643567 2.56799415,2.33631287 2.47927485,2.48645906 L2.44122515,2.53682456 L2.88866082,2.6364152 L2.90283918,2.6185117 L2.91032749,2.60209064 C2.91724561,2.57251754 2.97722807,2.41286842 3.47609357,2.16959357 C4.00939766,1.90947953 4.63142105,1.77761696 5.32471637,1.77738889 C6.01808772,1.77761696 6.63984503,1.90947953 7.17311111,2.16959357 C7.67201462,2.41286842 7.73218713,2.57251754 7.73902924,2.60209064 L7.74647953,2.6185117 L7.76050585,2.6364152 L8.20809357,2.53682456 L8.17023392,2.48653509 Z"/>
        <g fill="#463014" transform="translate(6.652 .494)">
            <path d="M2.10238889,2.05707895 C2.34197661,1.85831579 2.16354971,1.67384503 2.18247953,1.44801754 C2.19259064,1.32786257 2.20209357,1.21447368 2.24173977,1.15194444 C2.46224561,0.803795322 2.98232164,0.698160819 2.98768129,0.69705848 L3.23183041,0.649239766 L3.07020468,0.460207602 C3.04926023,0.43572807 2.38565205,-0.197432749 1.35857602,0.134105263 C0.640345029,0.36578655 0.108561404,1.15141228 0.0887953216,1.18315205 L0.448842105,1.35253216 C0.45321345,1.34584211 0.873660819,0.607388889 1.48994444,0.408663743 C1.98808772,0.247912281 2.44723099,0.400833333 2.64378947,0.501070175 C2.43483918,0.58454386 2.16138304,0.736552632 1.99667836,0.996590643 C1.91898246,1.11940643 1.90598246,1.27403801 1.89336257,1.42376608 C1.87667544,1.62199708 1.86090058,1.80912865 1.71497368,1.93030994 L2.10238889,2.05707895 Z"/>
            <path d="M1.64126901,1.94418421 L1.69167251,1.9022193 C1.8258538,1.79092105 1.84090643,1.61116374 1.85709942,1.42007895 C1.87009942,1.26632164 1.88351754,1.10724269 1.96588889,0.977166667 C2.11725146,0.73830117 2.35687719,0.588611111 2.55427193,0.499625731 C2.43609357,0.449564327 2.21402924,0.374947368 1.94019298,0.374947368 C1.78894444,0.374947368 1.64134503,0.397830409 1.50092982,0.443140351 C0.92927193,0.627497076 0.525321637,1.29372807 0.479593567,1.37188012 L0.462450292,1.39898246 L0.036377193,1.19862281 L0.0580438596,1.16403216 C0.0630614035,1.15597368 0.59777193,0.341421053 1.34755263,0.0996666667 C1.54806433,0.0348947368 1.74956433,0.00220467836 1.94646491,0.00220467836 C2.66804094,0.00220467836 3.09415205,0.432383041 3.09780117,0.436716374 L3.29990936,0.672997076 L2.99497953,0.732789474 C2.98992398,0.733815789 2.48261988,0.839944444 2.27252924,1.17148246 C2.23771053,1.22659942 2.22858772,1.33557895 2.21870468,1.45128655 C2.21296491,1.52008772 2.22740936,1.58714035 2.24147368,1.65195029 C2.27195906,1.79247953 2.30343275,1.93783626 2.12569006,2.08516959 L2.11025731,2.09797953 L1.64126901,1.94418421 Z"/>
        </g>
        <g fill="#463014" transform="translate(7.412 1.102)">
            <path d="M0.390418129,1.0708655 C0.390570175,1.07006725 0.48727193,0.647491228 0.755406433,0.434169591 C1.13354678,0.133345029 1.59535088,0.293374269 1.5996462,0.294780702 L1.66688889,0.0876549708 C1.64446199,0.0803947368 1.11674561,-0.0859064327 0.630195906,0.256008772 C0.140871345,0.599862573 0.0822953216,0.91155848 0.0770497076,0.945997076 L0.390418129,1.0708655 Z"/>
            <path d="M0.0370614035,0.969108187 L0.0412807018,0.940675439 C0.0466023392,0.904716374 0.107877193,0.578842105 0.609365497,0.226283626 C0.815692982,0.0813070175 1.06292105,0.0045994152 1.32432749,0.0045994152 C1.52259649,0.0045994152 1.66266959,0.0481988304 1.67817836,0.0531783626 L1.71261696,0.0643157895 L1.6227193,0.340622807 L1.58801462,0.329105263 C1.57505263,0.324733918 1.45843275,0.287216374 1.30152047,0.287216374 C1.1004386,0.287216374 0.924330409,0.346210526 0.77821345,0.462640351 C0.52178655,0.666573099 0.426871345,1.07466667 0.425997076,1.07869591 L0.416570175,1.12020468 L0.0370614035,0.969108187 Z M1.57615497,0.249964912 L1.62081871,0.112400585 C1.5681345,0.0990204678 1.46147368,0.0772777778 1.32432749,0.0772777778 C1.0744386,0.0772777778 0.847926901,0.147447368 0.651178363,0.285733918 C0.239587719,0.575040936 0.14121345,0.836447368 0.118900585,0.923570175 L0.365862573,1.02190643 C0.398172515,0.907073099 0.505137427,0.586976608 0.732903509,0.405736842 C0.890081871,0.280830409 1.08664035,0.214766082 1.30148246,0.214766082 C1.42502047,0.214766082 1.52453509,0.236090643 1.57615497,0.249964912 Z"/>
        </g>
        <path fill="#463014"
              d="M6.20510526 11.1206637C6.01820175 10.9208363 5.90762573 10.7058041 5.88090351 10.6397398 5.86562281 10.6021082 5.84821345 10.5303801 5.90302632 10.4740468 5.94575146 10.4304094 6.01979825 10.4080205 6.12334211 10.4080205L6.28268713 10.4080205C6.44876023 10.4080205 6.64296199 10.4080205 6.75844152 10.4081345L6.85529532 10.4082865C6.99133918 10.4082865 7.0583538 10.4472105 7.09062573 10.4798246 7.13753216 10.5273012 7.14486842 10.5933655 7.11255848 10.6760409 7.02600585 10.8969649 6.82967544 11.0772544 6.77163158 11.1272398 6.69560819 11.192886 6.58647661 11.2317719 6.47928363 11.2317719 6.36939181 11.2317719 6.27204386 11.1922778 6.20510526 11.1206637zM6.37409571 5.60908187L6.80964499 5.58418421C6.80964499 5.58418421 6.69840358 5.75858187 6.62624005 5.98414327 6.54474577 6.23927778 6.70075767 6.6121345 6.70075767 6.6121345 6.70075767 6.6121345 6.11964009 6.02789474 6.37409571 5.60908187z"/>
        <path fill="#E78724"
              d="M5.32486842,4.22731871 C5.07821053,4.22731871 4.75659357,4.22055263 4.51529532,4.04714327 C4.51529532,4.04714327 4.83124854,4.6010117 5.32445029,4.6010117 L5.32486842,4.53091813 L5.32528655,4.6010117 C5.81852632,4.6010117 6.13444152,4.04714327 6.13444152,4.04714327 C5.89314327,4.22055263 5.57129825,4.22731871 5.32486842,4.22731871 Z"/>
        <path fill="#463014"
              d="M6.00402339 4.22465789C5.75660526 4.39352525 5.53564327 4.45204364 5.32486842 4.45723099 5.11405556 4.45204364 4.89316959 4.39352525 4.64571345 4.22465789 4.64571345 4.22465789 5.00602632 4.72054232 5.32304386 4.7243578L5.32304386 4.72465789C5.32361404 4.72465789 5.32418421 4.72448641 5.32483041 4.72448641 5.32540058 4.72448641 5.32597076 4.72465789 5.32661696 4.72465789L5.32661696 4.7243578C5.64355848 4.72054232 6.00402339 4.22465789 6.00402339 4.22465789zM6.84997368 12.2537164L6.82237719 11.895076C7.98420468 11.8057105 8.35029532 10.6922719 8.35219591 10.5750819L8.71193863 10.5750819C8.71209064 10.8461433 8.22728947 12.1478538 6.84997368 12.2537164z"/>
        <path fill="#FFF"
              d="M7.23700877,9.92166082 C7.25863743,9.79724854 7.26072807,9.67926023 7.2345,9.56332456 C7.33933626,9.48464035 7.52703801,9.45540936 7.66798538,9.4097193 C7.78323684,9.33677485 8.37317836,9.4844883 8.80107602,8.96665497 C9.33719298,8.31821345 9.22422222,7.93106433 9.22422222,7.93106433 C9.36178655,8.08379532 9.49490351,8.02559942 9.70457602,8.73771053 C9.91440058,9.44997368 9.60593567,9.94652047 9.03131287,10.4450058 C8.75987135,10.6804883 8.37606725,10.7774942 8.04597368,10.8146316 C8.15654971,10.7035994 7.85709357,10.6925 7.65080409,10.6152602 C7.66730117,10.448617 7.63959064,10.2868392 7.51536842,10.1565731 C7.44059942,10.0780409 7.34404971,10.0310965 7.24411696,9.99369298 C7.23849123,9.98076901 7.23366374,9.96883333 7.22849415,9.95644152 C7.23180117,9.94511404 7.23491813,9.93367251 7.23700877,9.92166082 Z"/>
        <path fill="#C9C9C9"
              d="M7.65335088,10.6109269 C7.6654386,10.5759561 7.67429532,10.5403012 7.68315205,10.5044181 C7.69284503,10.4652281 7.74035965,10.3541959 7.6817076,10.4809649 C7.69676023,10.4485029 7.70660526,10.4150526 7.7138655,10.3813363 C8.64446784,10.3801579 9.45407895,9.7412193 9.29750877,8.39792398 C9.41933626,8.23618421 9.59004678,8.72406433 9.59004678,8.72406433 C9.59004678,8.72406433 10.0559561,10.0768246 8.85273392,10.6011199 C8.45182456,10.7759737 8.09755556,10.9012982 8.01392982,10.8507047 C7.8396462,10.8860936 7.68246784,10.7646842 7.62366374,10.6848596 C7.63464912,10.6603421 7.64495029,10.6357865 7.65335088,10.6109269 Z"/>
        <path fill="#463014"
              d="M7.25365789,9.72688889 C7.2523655,9.6135 7.22906433,9.50368421 7.17440351,9.39424854 C7.17052632,9.38672222 7.16607895,9.3795 7.1620117,9.37216374 C7.52008187,9.3690848 7.93254678,9.33479825 8.28373684,9.19423099 C8.6697076,9.03982749 9.15257018,8.51157895 9.23558772,7.89092398 C9.23558772,7.89092398 9.9625614,8.45190058 9.74893567,9.65261404 C9.54827193,10.780117 8.60489766,11.1476901 7.52890058,11.2098772 C7.52833041,11.2025789 7.64996784,10.9513977 7.6115,10.7976404 C8.22234795,10.842038 8.90560819,10.6059854 9.23562573,10.0632544 C9.53740058,9.56651754 9.45274854,8.7184386 9.32864035,8.59417836 C9.02602924,9.54937427 7.93665205,9.74353801 7.25365789,9.72688889 Z"/>
        <path fill="#463014"
              d="M4.91331579,0.31671345 C4.78476023,0.17774269 4.54840351,0.0120877193 4.00342982,0.0120877193 C4.00342982,0.0120877193 2.97019591,0.0114795322 2.55183918,0.0112134503 C2.55126901,0.0112134503 2.55054678,0.0112134503 2.55005263,0.0112134503 C2.55005263,0.0112134503 2.54876023,0.0112134503 2.54826608,0.0112134503 C2.12994737,0.0115175439 1.09644737,0.0120877193 1.09644737,0.0120877193 C0.551625731,0.0120877193 0.315269006,0.177780702 0.186637427,0.31671345 C-0.000722222222,0.518973684 -0.0301052632,0.800336257 0.0995146199,1.15202047 C0.443938596,2.08809649 0.92794152,3.03911111 2.54819006,3.04044152 L2.54819006,3.04059357 C2.54879825,3.04059357 2.54933041,3.04044152 2.54997661,3.04044152 C2.55054678,3.04044152 2.55111696,3.04059357 2.55176316,3.04059357 L2.55176316,3.04044152 C4.17185965,3.03903509 4.65586257,2.08809649 5.00040058,1.15202047 C5.13002047,0.800336257 5.1005614,0.518973684 4.91331579,0.31671345 Z M4.66107018,1.08637427 C4.49697368,1.5564269 4.05596199,2.69419298 2.5499386,2.69616959 C1.04372515,2.69419298 0.602865497,1.55646491 0.438769006,1.08637427 C0.347959064,0.825576023 0.354877193,0.632590643 0.460017544,0.512701754 C0.531821637,0.430748538 0.696792398,0.332944444 1.07276608,0.332944444 L1.46554094,0.332792398 C1.75530409,0.332526316 2.11911404,0.332222222 2.54997661,0.332070175 C2.98068713,0.332222222 3.34468713,0.332526316 3.63437427,0.332792398 L4.02699708,0.332944444 C4.4030848,0.332944444 4.56801754,0.430710526 4.63985965,0.512701754 C4.74488596,0.632704678 4.75188012,0.825576023 4.66107018,1.08637427 Z"
              transform="translate(2.775 9.693)"/>
        <path fill="#463014"
              d="M7.14099123,9.04305848 C7.33462281,9.61129532 7.73009649,10.0711608 7.73009649,10.0711608 C7.73009649,10.0711608 7.1860731,10.0464152 7.15600585,9.95013158 C7.13392105,9.87916374 6.66485673,8.78119591 6.48483333,7.49499415 C6.6540614,7.77320175 7.12438012,8.99440351 7.14099123,9.04305848 Z"/>
    </g>
</svg>
