<svg xmlns="http://www.w3.org/2000/svg" width="13" height="13" viewBox="0 0 13 13">
    <g fill="none" fill-rule="evenodd" transform="translate(1)">
        <path fill="#389FD6"
              d="M5,6.40708555 C2.19674999,6.33187008 1.12754944e-12,5.63039253 1.12754944e-12,4.77614683 C1.12754944e-12,4.65790961 1.1252323e-12,4.23495495 1.12059802e-12,3.50728282 C1.12656697,4.15682677 2.9334545,4.59784389 5,4.65953668 L5,6.40708555 Z M5,9.2459436 C2.19674999,9.17439718 1.12754944e-12,8.50713803 1.12754944e-12,7.69456284 C1.12754944e-12,7.57462201 1.12491423e-12,7.12503933 1.11964379e-12,6.34581483 C1.12656697,6.99535878 2.9334545,7.43637589 5,7.49806869 L5,9.2459436 Z M5,12.193324 C2.19674999,12.1181086 1.11022302e-12,11.416631 1.11022302e-12,10.5623853 L1.11022302e-12,9.18434683 C1.12656697,9.83389078 2.9334545,10.2749079 5,10.3366007 L5,12.193324 Z M5.5,3.57522937 C2.46243388,3.57522937 1.11022302e-12,2.8420443 1.11022302e-12,1.93761469 C1.11022302e-12,1.03318508 2.46243388,0.300000012 5.5,0.300000012 C8.53756612,0.300000012 11,1.03318508 11,1.93761469 C11,2.8420443 8.53756612,3.57522937 5.5,3.57522937 Z"/>
        <path fill="#6E6E6E"
              d="M6,6 L12,6 L12,13 L6,13 L6,6 Z M7,7 L7,12 L11,12 L11,7 L7,7 Z M8,8 L10,8 L10,9 L8,9 L8,8 Z M8,10 L10,10 L10,11 L8,11 L8,10 Z"/>
    </g>
</svg>
