<svg xmlns="http://www.w3.org/2000/svg" width="13" height="13" viewBox="0 0 13 13">
    <defs>
        <radialGradient id="pubservetoolwindow-a" fx="50%" fy="50%">
            <stop offset="0%" stop-color="#FFF" stop-opacity=".1"/>
            <stop offset="100%" stop-color="#FFF" stop-opacity="0"/>
        </radialGradient>
    </defs>
    <g fill="none" fill-rule="evenodd">
        <rect width="9" height="2.8" x="2" y="1.2" fill="#6E6E6E"/>
        <path fill="#6E6E6E"
              d="M6.45349495,4.79999995 C5.41312153,5.40057723 4.63551333,6.40549103 4.33541181,7.5999999 L2,7.5999999 L2,4.79999995 L6.45349495,4.79999995 Z M10.9465047,4.79999995 L11,4.79999995 L11,4.83137513 C10.9822468,4.82079764 10.9644147,4.81033888 10.9465047,4.79999995 Z M4.20984117,8.39999986 C4.20331461,8.49915693 4.19999981,8.59919126 4.19999981,8.69999981 C4.19999981,9.62507313 4.47913564,10.4849508 4.95777433,11.1999998 L2,11.1999998 L2,8.39999986 L4.20984117,8.39999986 Z"/>
        <g fill-rule="nonzero" transform="translate(4.39 4.39)">
            <path fill="#01579B"
                  d="M2.06610577,6.93389423 L0.659855769,5.52764423 C0.493269231,5.3561899 0.389423077,5.11496394 0.389423077,4.87860577 C0.389423077,4.76935096 0.451081731,4.5984375 0.497596154,4.5 L1.79567308,1.79567308 L2.06610577,6.93389423 Z"/>
            <path fill="#40C4FF"
                  d="M6.87980769,2.06610577 L5.47355769,0.659855769 C5.35078125,0.536538462 5.09495192,0.389423077 4.87860577,0.389423077 C4.69254808,0.389423077 4.51027644,0.426742788 4.39182692,0.497596154 L1.79567308,1.79567308 L6.87980769,2.06610577 Z"/>
            <polygon fill="#40C4FF" points="3.743 8.611 7.15 8.611 7.15 7.15 4.608 6.339 2.282 7.15"/>
            <path fill="#29B6F6"
                  d="M1.79567308,6.17668269 C1.79567308,6.61045673 1.85030048,6.71700721 2.06610577,6.93389423 L2.28245192,7.15024038 L7.15024038,7.15024038 L4.77043269,4.44591346 L1.79567308,1.79567308 L1.79567308,6.17668269 Z"/>
            <path fill="#01579B"
                  d="M6.12259615,1.79567308 L1.79567308,1.79567308 L7.15024038,7.15024038 L8.61057692,7.15024038 L8.61057692,3.796875 L6.87980769,2.06610577 C6.63695913,1.82217548 6.42061298,1.79567308 6.12259615,1.79567308 Z"/>
            <path fill="#FFF"
                  d="M2.12900641,6.98798077 C1.90678419,6.77055288 1.85122863,6.55691106 1.85122863,6.17668269 L1.85122863,1.84975962 L1.79567308,1.79567308 L1.79567308,6.17668269 C1.79567308,6.55691106 1.79567308,6.66237981 2.12900641,6.98798077 L2.29567308,7.15024038 L2.12900641,6.98798077 Z"
                  opacity=".2"/>
            <polygon fill="#263238" points="8.556 3.743 8.556 7.096 7.096 7.096 7.15 7.15 8.611 7.15 8.611 3.797"
                     opacity=".2"/>
            <path fill="#FFF"
                  d="M6.87980769,2.29567308 C6.61153846,1.79967308 6.39194712,1.79567308 6.06850962,1.79567308 L1.79567308,1.79567308 L1.84975962,1.89567308 L6.06850962,1.89567308 C6.23022837,1.89567308 6.6375,1.84567308 6.87980769,2.29567308 Z"
                  opacity=".2"/>
            <path fill="url(#pubservetoolwindow-a)"
                  d="M6.87980769,2.06610577 L5.47355769,0.659855769 C5.35078125,0.536538462 5.09495192,0.389423077 4.87860577,0.389423077 C4.69254808,0.389423077 4.51027644,0.426742788 4.39182692,0.497596154 L1.79567308,1.79567308 L0.497596154,4.5 C0.451081731,4.5984375 0.389423077,4.76935096 0.389423077,4.87860577 C0.389423077,5.11496394 0.493269231,5.3561899 0.659855769,5.52764423 L1.95576923,6.81436298 C1.97632212,6.83960337 2.57199519,7.43834135 3.74278846,8.61057692 L7.15024038,8.61057692 L7.15024038,7.15024038 L8.61057692,7.15024038 L8.61057692,3.796875 L6.87980769,2.06610577 Z"
                  opacity=".2"/>
        </g>
    </g>
</svg>
