<svg xmlns="http://www.w3.org/2000/svg" width="13" height="13" viewBox="0 0 13 13">
    <g fill="#DA4648" transform="translate(2.5 -1)">
        <path d="M6.20775265 10.5267615L6.66665724 9.93923498C6.66665724 9.93923498 5.6221861 10.1999998 3.87357126 10.1999998 2.1249258 10.1999998 1.0962874 9.94516078 1.0962874 9.94516078L1.61059128 10.5860654 1.79253004 12.6037756C1.79253004 12.8200901 2.74368905 12.9954293 3.91705771 12.9954293 5.09036514 12.9954293 6.04155477 12.8200901 6.04155477 12.6037756L6.20775265 10.5267615zM6.77000046 1.01L5.77000046.989202083 4.84000015 3C4.53516114 2.99233934 4.22871326 2.99994893 3.92370318 3 1.76971496 3 .0235500589 3.17293649.0235500589 3.4000001.0235500589 3.62708667 1.76971496 4 3.92370318 4 6.07766078 4 7.82379505 3.62708667 7.82379505 3.4000001 7.82379505 3.23279161 7.19947247 3.06424205 5.84000015 3L6.77000046 1.01zM7.74974558 4.01000023C7.74974558 4.01473167 7.22316137 4.5999999 3.87305065 4.5999999.522909305 4.5999999.0508056537 4.01000023.0508056537 4.01000023L.904242638 9.18000031C.904242638 9.18000031 1.63962309 9.5 3.85489046 9.5 6.07015783 9.5 6.83276325 9.18999958 6.83276325 9.18999958L7.74974558 4.01000023z"/>
    </g>
</svg>
