<svg xmlns="http://www.w3.org/2000/svg" width="13" height="13" viewBox="0 0 13 13">
    <defs>
        <radialGradient id="dart_13-a" fx="50%" fy="50%">
            <stop offset="0%" stop-color="#FFF" stop-opacity=".1"/>
            <stop offset="100%" stop-color="#FFF" stop-opacity="0"/>
        </radialGradient>
    </defs>
    <g fill="none" transform="translate(.05 .05)">
        <path fill="#01579B"
              d="M2.86959135,9.63040865 L0.916466346,7.67728365 C0.685096154,7.43915264 0.540865385,7.10411659 0.540865385,6.77584135 C0.540865385,6.62409856 0.626502404,6.38671875 0.691105769,6.25 L2.49399038,2.49399038 L2.86959135,9.63040865 Z"/>
        <path fill="#40C4FF"
              d="M9.55528846,2.86959135 L7.60216346,0.916466346 C7.43164062,0.745192308 7.07632212,0.540865385 6.77584135,0.540865385 C6.51742788,0.540865385 6.26427284,0.592698317 6.09975962,0.691105769 L2.49399038,2.49399038 L9.55528846,2.86959135 Z"/>
        <polygon fill="#40C4FF" points="5.198 11.959 9.931 11.959 9.931 9.931 6.4 8.804 3.17 9.931"/>
        <path fill="#29B6F6"
              d="M2.49399038,8.57872596 C2.49399038,9.1811899 2.56986178,9.32917668 2.86959135,9.63040865 L3.17007212,9.93088942 L9.93088942,9.93088942 L6.62560096,6.17487981 L2.49399038,2.49399038 L2.49399038,8.57872596 Z"/>
        <path fill="#01579B"
              d="M8.50360577,2.49399038 L2.49399038,2.49399038 L9.93088942,9.93088942 L11.9591346,9.93088942 L11.9591346,5.2734375 L9.55528846,2.86959135 C9.2179988,2.53079928 8.91751803,2.49399038 8.50360577,2.49399038 Z"/>
        <path fill="#FFF"
              d="M2.94471154,9.70552885 C2.64423077,9.40354567 2.56911058,9.10682091 2.56911058,8.57872596 L2.56911058,2.56911058 L2.49399038,2.49399038 L2.49399038,8.57872596 C2.49399038,9.10682091 2.49399038,9.25330529 2.94471154,9.70552885 L3.17007212,9.93088942 L2.94471154,9.70552885 Z"
              opacity=".2"/>
        <polygon fill="#263238" points="11.884 5.198 11.884 9.856 9.856 9.856 9.931 9.931 11.959 9.931 11.959 5.273"
                 opacity=".2"/>
        <path fill="#FFF"
              d="M9.55528846,2.99399038 C9.18269231,2.49799038 8.87770433,2.49399038 8.42848558,2.49399038 L2.49399038,2.49399038 L2.56911058,2.59399038 L8.42848558,2.59399038 C8.65309495,2.59399038 9.21875,2.54399038 9.55528846,2.99399038 Z"
              opacity=".2"/>
        <path fill="url(#dart_13-a)"
              d="M11.8840144,5.19831731 L9.55528846,2.86959135 L7.60216346,0.916466346 C7.43164062,0.745192308 7.07632212,0.540865385 6.77584135,0.540865385 C6.51742788,0.540865385 6.26427284,0.592698317 6.09975962,0.691105769 L2.49399038,2.49399038 L0.691105769,6.25 C0.626502404,6.38671875 0.540865385,6.62409856 0.540865385,6.77584135 C0.540865385,7.10411659 0.685096154,7.43915264 0.916466346,7.67728365 L2.71634615,9.46439303 C2.75916466,9.51697716 2.81024639,9.5710637 2.86959135,9.63040865 L2.94471154,9.70552885 L3.17007212,9.93088942 L5.12319712,11.8840144 L5.19831731,11.9591346 L9.85576923,11.9591346 L9.93088942,11.9591346 L9.93088942,9.93088942 L11.9591346,9.93088942 L11.9591346,9.92563101 L11.9591346,5.2734375 L11.8840144,5.19831731 Z"
              opacity=".2"/>
    </g>
</svg>
